<svg width="1920" height="228" viewBox="0 0 1920 228" fill="none" xmlns="http://www.w3.org/2000/svg">
<path d="M1962.96 291.194C1961.55 368.501 1897.74 430.031 1820.44 428.625C1743.13 427.219 1681.6 363.409 1683.01 286.102C1684.41 208.795 1748.22 147.265 1825.53 148.671C1902.84 150.077 1964.37 213.887 1962.96 291.194Z" fill="#272E16"/>
<path d="M-39.6102 305.72C-18.6957 401.774 76.1255 462.686 172.179 441.771C268.232 420.857 329.144 326.036 308.23 229.982C287.315 133.929 192.494 73.017 96.4407 93.9315C0.387392 114.846 -60.5247 209.667 -39.6102 305.72Z" fill="#272E16"/>
<path d="M498.437 270.203C511.354 329.526 569.916 367.146 629.24 354.229C688.563 341.312 726.183 282.75 713.266 223.426C700.349 164.103 641.787 126.483 582.463 139.4C523.14 152.317 485.52 210.879 498.437 270.203Z" fill="#272E16"/>
<path d="M1288.31 284.57C1301.22 343.894 1359.79 381.514 1419.11 368.597C1478.43 355.68 1516.05 297.117 1503.14 237.794C1490.22 178.471 1431.66 140.851 1372.33 153.768C1313.01 166.685 1275.39 225.247 1288.31 284.57Z" fill="#272E16"/>
<path d="M1405.36 107.543C1409.01 124.296 1425.55 134.92 1442.3 131.272C1459.05 127.624 1469.68 111.086 1466.03 94.3331C1462.38 77.58 1445.85 66.956 1429.09 70.6038C1412.34 74.2516 1401.71 90.7898 1405.36 107.543Z" fill="#272E16"/>
<path d="M986.24 277.392C990.416 296.57 1009.35 308.732 1028.53 304.556C1047.7 300.38 1059.87 281.448 1055.69 262.27C1051.51 243.092 1032.58 230.931 1013.4 235.107C994.226 239.282 982.064 258.214 986.24 277.392Z" fill="#272E16"/>
<path d="M1068.51 220.09C1070.24 228.058 1078.11 233.111 1086.08 231.376C1094.04 229.641 1099.1 221.775 1097.36 213.807C1095.63 205.839 1087.76 200.786 1079.79 202.521C1071.83 204.256 1066.77 212.121 1068.51 220.09Z" fill="#272E16"/>
<path d="M1724.69 248.854C1724.06 283.642 1695.34 311.33 1660.55 310.698C1625.77 310.065 1598.08 281.35 1598.71 246.562C1599.34 211.774 1628.06 184.086 1662.85 184.718C1697.63 185.351 1725.32 214.066 1724.69 248.854Z" fill="#272E16"/>
<path d="M247.018 193.866C256.429 237.09 299.099 264.5 342.323 255.089C385.547 245.677 412.957 203.008 403.546 159.784C394.134 116.56 351.465 89.1493 308.241 98.5608C265.017 107.972 237.606 150.642 247.018 193.866Z" fill="#272E16"/>
<path d="M1600.26 161.576C1599.91 180.903 1583.95 196.286 1564.63 195.934C1545.3 195.582 1529.92 179.63 1530.27 160.303C1530.62 140.976 1546.57 125.594 1565.9 125.946C1585.23 126.297 1600.61 142.25 1600.26 161.576Z" fill="#272E16"/>
<path d="M380.554 54.1893C385.782 78.2026 409.488 93.4307 433.501 88.202C457.514 82.9734 472.742 59.2681 467.514 35.2548C462.285 11.2414 438.58 -3.98658 414.566 1.24205C390.553 6.47067 375.325 30.176 380.554 54.1893Z" fill="#272E16"/>
</svg>
