<svg width="1920" height="363" viewBox="0 0 1920 363" fill="none" xmlns="http://www.w3.org/2000/svg">
<g clip-path="url(#clip0_4005_135)">
<path d="M2165 340.325C2165 432.751 2090.07 507.677 1997.64 507.677C1905.21 507.677 1830.28 432.751 1830.28 340.325C1830.28 247.899 1905.21 172.973 1997.64 172.973C2090.07 172.973 2165 247.899 2165 340.325Z" fill="#384122"/>
<path d="M-228.223 401.223C-201.137 515.569 -86.4788 586.308 27.8727 559.223C142.224 532.138 212.967 417.486 185.881 303.14C158.795 188.795 44.1369 118.056 -70.2146 145.14C-184.566 172.225 -255.309 286.877 -228.223 401.223Z" fill="#384122"/>
<path d="M414.097 347.076C430.826 417.697 501.639 461.386 572.264 444.658C642.888 427.93 686.58 357.12 669.851 286.499C653.122 215.878 582.309 172.189 511.684 188.917C441.06 205.645 397.368 276.455 414.097 347.076Z" fill="#384122"/>
<path d="M1358.49 347.076C1375.22 417.697 1446.03 461.386 1516.65 444.658C1587.28 427.93 1630.97 357.12 1614.24 286.499C1597.51 215.878 1526.7 172.189 1456.08 188.917C1385.45 205.645 1341.76 276.455 1358.49 347.076Z" fill="#384122"/>
<path d="M1494.55 132.952C1499.27 152.896 1519.27 165.234 1539.22 160.51C1559.16 155.786 1571.5 135.789 1566.77 115.845C1562.05 95.9015 1542.05 83.5636 1522.11 88.2875C1502.16 93.0115 1489.82 113.009 1494.55 132.952Z" fill="#384122"/>
<path d="M997.292 345.063C1002.7 367.893 1025.59 382.017 1048.42 376.609C1071.26 371.202 1085.38 348.31 1079.97 325.48C1074.56 302.65 1051.67 288.526 1028.84 293.934C1006.01 299.342 991.884 322.233 997.292 345.063Z" fill="#384122"/>
<path d="M1094.38 274.788C1096.62 284.274 1106.13 290.142 1115.62 287.895C1125.11 285.648 1130.97 276.137 1128.73 266.652C1126.48 257.166 1116.97 251.298 1107.48 253.545C1098 255.792 1092.13 265.303 1094.38 274.788Z" fill="#384122"/>
<path d="M1879.29 294.901C1879.29 336.493 1845.57 370.209 1803.98 370.209C1762.39 370.209 1728.67 336.493 1728.67 294.901C1728.67 253.309 1762.39 219.592 1803.98 219.592C1845.57 219.592 1879.29 253.309 1879.29 294.901Z" fill="#384122"/>
<path d="M111.933 261.306C124.122 312.761 175.718 344.594 227.176 332.406C278.634 320.218 310.468 268.624 298.28 217.169C286.091 165.713 234.495 133.881 183.037 146.069C131.578 158.257 99.7443 209.85 111.933 261.306Z" fill="#384122"/>
<path d="M1728.67 193.294C1728.67 216.401 1709.94 235.132 1686.83 235.132C1663.72 235.132 1644.99 216.401 1644.99 193.294C1644.99 170.188 1663.72 151.456 1686.83 151.456C1709.94 151.456 1728.67 170.188 1728.67 193.294Z" fill="#384122"/>
<path d="M268.503 91.4649C275.274 120.051 303.939 137.736 332.526 130.965C361.114 124.194 378.8 95.5307 372.028 66.9443C365.257 38.3579 336.593 20.6731 308.005 27.4443C279.417 34.2154 261.731 62.8784 268.503 91.4649Z" fill="#384122"/>
</g>
<defs>
<clipPath id="clip0_4005_135">
<rect width="1920" height="363" fill="white"/>
</clipPath>
</defs>
</svg>
