<svg width="1920" height="284" viewBox="0 0 1920 284" fill="none" xmlns="http://www.w3.org/2000/svg">
<g clip-path="url(#clip0_4005_181)">
<path d="M-436.967 329.717C-435.016 417.316 -346.457 487.037 -239.167 485.443C-131.877 483.85 -46.4827 411.546 -48.4344 323.947C-50.386 236.348 -138.944 166.627 -246.235 168.221C-353.525 169.814 -438.919 242.119 -436.967 329.717Z" fill="#D9C264"/>
<path d="M2342.29 346.177C2313.27 455.018 2181.67 524.039 2048.36 500.34C1915.05 476.641 1830.52 369.197 1859.54 260.357C1888.57 151.516 2020.17 82.495 2153.47 106.194C2286.78 129.892 2371.32 237.337 2342.29 346.177Z" fill="#D9C264"/>
<path d="M1595.57 305.931C1577.64 373.152 1496.36 415.78 1414.03 401.144C1331.7 386.507 1279.49 320.148 1297.42 252.928C1315.34 185.707 1396.62 143.079 1478.95 157.715C1561.28 172.352 1613.49 238.71 1595.57 305.931Z" fill="#D9C264"/>
<path d="M499.348 322.212C481.421 389.433 400.146 432.061 317.814 417.424C235.482 402.787 183.271 336.429 201.198 269.208C219.125 201.987 300.401 159.359 382.732 173.996C465.064 188.632 517.275 254.991 499.348 322.212Z" fill="#D9C264"/>
<path d="M336.892 121.617C331.829 140.601 308.877 152.639 285.626 148.506C262.375 144.372 247.63 125.632 252.693 106.649C257.756 87.6654 280.708 75.6271 303.959 79.7606C327.21 83.894 341.954 102.634 336.892 121.617Z" fill="#D9C264"/>
<path d="M918.57 314.078C912.774 335.809 886.5 349.589 859.884 344.858C833.268 340.126 816.389 318.674 822.185 296.943C827.98 275.212 854.254 261.431 880.87 266.163C907.486 270.894 924.365 292.347 918.57 314.078Z" fill="#D9C264"/>
<path d="M804.394 249.147C801.986 258.176 791.07 263.901 780.011 261.935C768.953 259.969 761.94 251.056 764.348 242.027C766.756 232.999 777.673 227.273 788.731 229.239C799.789 231.205 806.802 240.118 804.394 249.147Z" fill="#D9C264"/>
<path d="M-106.286 281.74C-105.408 321.16 -65.5564 352.534 -17.2758 351.817C31.0049 351.1 69.4322 318.563 68.554 279.144C67.6757 239.724 27.8245 208.35 -20.4561 209.067C-68.7368 209.784 -107.164 242.321 -106.286 281.74Z" fill="#D9C264"/>
<path d="M1944.5 219.432C1931.43 268.41 1872.22 299.47 1812.23 288.805C1752.24 278.141 1714.2 229.791 1727.26 180.813C1740.32 131.834 1799.54 100.775 1859.53 111.439C1919.52 122.104 1957.56 170.454 1944.5 219.432Z" fill="#D9C264"/>
<path d="M66.4085 182.844C66.8964 204.743 89.0359 222.174 115.859 221.775C142.681 221.377 164.03 203.301 163.542 181.401C163.054 159.502 140.914 142.071 114.092 142.47C87.2691 142.868 65.9206 160.944 66.4085 182.844Z" fill="#D9C264"/>
<path d="M1759.17 61.1609C1751.91 88.371 1719.01 105.626 1685.69 99.7016C1652.36 93.7769 1631.23 66.9158 1638.48 39.7057C1645.74 12.4955 1678.64 -4.75971 1711.97 1.16498C1745.29 7.08967 1766.43 33.9507 1759.17 61.1609Z" fill="#D9C264"/>
<path d="M475.187 363.676C439.736 431.157 284.278 474.887 127.963 461.349C-28.3532 447.811 -126.333 382.132 -90.8821 314.651C-55.431 247.17 100.027 203.44 256.342 216.978C412.658 230.516 510.638 296.195 475.187 363.676Z" fill="#D9C264"/>
<path d="M913.747 384.072C878.296 451.553 722.838 495.283 566.522 481.745C410.206 468.207 312.226 402.529 347.677 335.047C383.129 267.566 538.586 223.837 694.902 237.374C851.218 250.912 949.198 316.591 913.747 384.072Z" fill="#D9C264"/>
<path d="M1351.72 378.012C1316.68 463.964 1161.47 519.121 1005.06 501.208C848.648 483.295 750.255 399.095 785.295 313.143C820.334 227.19 975.537 172.033 1131.95 189.946C1288.36 207.859 1386.76 292.059 1351.72 378.012Z" fill="#D9C264"/>
<path d="M1946.85 352.763C1890.16 421.261 1644.72 466.761 1398.66 454.39C1152.59 442.019 999.072 376.462 1055.77 307.964C1112.46 239.466 1357.9 193.966 1603.96 206.337C1850.03 218.708 2003.55 284.265 1946.85 352.763Z" fill="#D9C264"/>
</g>
<defs>
<clipPath id="clip0_4005_181">
<rect width="1920" height="284" fill="white"/>
</clipPath>
</defs>
</svg>
